<?xml version="1.0" encoding="utf-8"?>
<svg viewBox="0 0 500 500" xmlns="http://www.w3.org/2000/svg">
  <circle style="stroke: rgb(108, 15, 150); stroke-width: 41px; fill: rgb(255, 255, 255);" cx="249.724" cy="250" r="212.47"/>
  <path style="stroke: rgb(108, 15, 150); stroke-width: 15px; fill: rgb(108, 15, 150);" d="M 135.35 300.325 C 212.386 321.824 288.884 321.669 364.844 299.86 C 384.997 294.074 354.381 363.422 354.381 363.422 C 354.381 363.422 348.194 421.171 254.631 421.923 C 139.775 422.846 139.894 363.422 139.894 363.422 C 139.894 363.422 117.513 321.752 119.86 302.851 C 120.507 297.638 125.671 296.796 135.35 300.325 Z"/>
  <path style="fill: rgb(255, 255, 255); stroke: rgb(255, 255, 255); stroke-width: 21px;" d="M 139.894 324.63 C 213.695 340.659 287.862 340.11 362.395 322.981 C 365.936 322.168 356.947 332.011 356.947 332.011 C 356.947 332.011 328.072 358.048 249.867 358.048 C 169.627 358.048 147.124 333.882 147.124 333.882 C 147.124 333.882 140.307 328.617 139.894 324.63 Z"/>
  <g transform="matrix(1, 0, 0, 1, 0.764435, 0)">
    <path style="stroke-linecap: round; stroke-miterlimit: 2; stroke: rgb(108, 15, 150); fill: none; stroke-width: 34px;" d="M 116.9 243.663 C 156.551 209.704 193.039 209.932 226.363 244.346"/>
    <path style="fill: none; stroke: rgb(108, 15, 150); stroke-linecap: round; stroke-linejoin: round; stroke-width: 34px;" d="M 89.579 209.243 C 106.164 169.868 136.261 144.01 179.872 131.668"/>
    <path d="M 80.06 257.848 C 92.094 235.51 104.156 235.51 116.247 257.848 L 159.173 337.152 C 164.246 346.525 165.145 363.712 165.145 365.922 C 165.145 402.897 135.17 432.872 98.195 432.872 C 61.22 432.872 31.245 402.897 31.245 365.922 C 31.245 363.522 32.459 346.209 37.338 337.152 L 80.06 257.848 Z" style="stroke-miterlimit: 7; stroke-linecap: round; stroke-linejoin: round; stroke: rgb(108, 15, 150); fill: rgb(255, 255, 255); stroke-width: 34px;" transform="matrix(0.96427, 0.264922, -0.264922, 0.96427, 92.784267, -13.984589)"/>
  </g>
  <g transform="matrix(-1, 0, 0, 1, 498, 0)">
    <path style="stroke-linecap: round; stroke-miterlimit: 2; stroke: rgb(108, 15, 150); fill: none; stroke-width: 34px;" d="M 115.9 243.663 C 155.551 209.704 192.039 209.932 225.363 244.346"/>
    <path style="fill: none; stroke: rgb(108, 15, 150); stroke-linecap: round; stroke-linejoin: round; stroke-width: 34px;" d="M 88.579 209.243 C 105.164 169.868 135.261 144.01 178.872 131.668"/>
    <path d="M 79.061 257.837 C 91.095 235.499 103.157 235.499 115.248 257.837 L 158.175 337.141 C 163.248 346.514 164.147 363.701 164.147 365.911 C 164.147 402.886 134.171 432.861 97.196 432.861 C 60.221 432.861 30.246 402.886 30.246 365.911 C 30.246 363.511 31.46 346.198 36.339 337.141 L 79.061 257.837 Z" style="stroke-miterlimit: 7; stroke-linecap: round; stroke-linejoin: round; stroke: rgb(108, 15, 150); fill: rgb(255, 255, 255); stroke-width: 34px;" transform="matrix(0.96427, 0.264922, -0.264922, 0.96427, 92.744185, -13.709421)"/>
  </g>
</svg>